<svg xmlns="http://www.w3.org/2000/svg" width="23.124" height="23.124" viewBox="0 0 23.124 23.124"><defs><style>.a{fill:#fff;}</style></defs><g transform="translate(0)"><path class="a" d="M23.124,11.562A11.562,11.562,0,1,0,11.562,23.124,11.562,11.562,0,0,0,23.124,11.562ZM5.336,15.671a4.866,4.866,0,0,0,.61.039,4.932,4.932,0,0,0,3.172-1.155,2.594,2.594,0,0,1-2.386-1.9,2.386,2.386,0,0,0,1.153-.039,2.714,2.714,0,0,1-2.05-2.689V9.891a2.445,2.445,0,0,0,1.157.353A2.865,2.865,0,0,1,6.2,6.6a7.2,7.2,0,0,0,5.265,2.909,2.846,2.846,0,0,1-.066-.617,2.581,2.581,0,0,1,2.554-2.662,2.542,2.542,0,0,1,1.865.88,4.889,4.889,0,0,0,1.622-.625,2.617,2.617,0,0,1-1.124,1.467,4.866,4.866,0,0,0,1.467-.4,5.252,5.252,0,0,1-1.275,1.371c.005.116.007.231.007.347,0,3.546-2.57,7.636-7.268,7.634A6.879,6.879,0,0,1,5.336,15.671Z"/></g></svg>