<svg xmlns="http://www.w3.org/2000/svg" width="24.258" height="24.258" viewBox="0 0 24.258 24.258"><defs><style>.a{fill:#7f7f7f;}</style></defs><g transform="translate(0 0)"><path class="a" d="M24.258,12.129A12.129,12.129,0,1,0,12.129,24.258,12.129,12.129,0,0,0,24.258,12.129ZM5.6,16.439a5.1,5.1,0,0,0,.64.041,5.173,5.173,0,0,0,3.328-1.212,2.721,2.721,0,0,1-2.5-1.995,2.5,2.5,0,0,0,1.21-.041,2.847,2.847,0,0,1-2.15-2.821v-.036a2.565,2.565,0,0,0,1.214.37,3.006,3.006,0,0,1-.828-3.827,7.557,7.557,0,0,0,5.523,3.052,2.986,2.986,0,0,1-.069-.647,2.708,2.708,0,0,1,2.679-2.793,2.666,2.666,0,0,1,1.956.923A5.128,5.128,0,0,0,18.3,6.8,2.746,2.746,0,0,1,17.12,8.337a5.1,5.1,0,0,0,1.539-.421,5.509,5.509,0,0,1-1.337,1.438c.006.121.008.243.008.364,0,3.72-2.7,8.011-7.625,8.008A7.216,7.216,0,0,1,5.6,16.439Z"/></g></svg>